<?xml version="1.0" standalone="no"?>
<?xml-stylesheet href="light.css" type="text/css"?>
<!DOCTYPE svg PUBLIC "-//W3C//DTD SVG 1.1//EN" "http://www.w3.org/Graphics/SVG/1.1/DTD/svg11.dtd">
<svg xmlns="http://www.w3.org/2000/svg" version="1.1" viewBox="0 0 800 800" style="touch-action: none; -webkit-tap-highlight-color: rgba(0, 0, 0, 0);"><g transform="translate(253.23553466796875,189.99185180664062) scale(0.4)"><g><path class="link" d="M64.28048212750919,-354.2146518955067L61.559086464160146,-287.4416942804075C58.83769080081112,-220.66873666530827,53.39489947411304,-87.12282143510988,63.7639752310754,-84.26113835757634C74.13305098803777,-81.39945528004279,100.31399382866056,-209.2220043551741,113.40446524897196,-273.1332788927397L126.49493666928335,-337.04455343030537"></path><path class="link" d="M64.28048212750919,-354.2146518955067L63.33216467574363,-274.3523052927973C62.38384722397808,-194.489958690088,60.487212320446964,-34.765265484669364,85.04091377007715,72.81152949374525C109.59461521970736,180.38832447215987,160.59865302249887,235.81722122357044,186.10067192389462,263.53166959927574L211.60269082529038,291.246117974981"></path><path class="link" d="M64.28048212750919,-354.2146518955067L58.92377528355008,-287.7994046650992C53.56706843959097,-221.38415743469167,42.853654751672764,-88.55366297387667,32.14024106375456,-44.276831486938335C21.426827375836357,0,10.713413687918175,-44.276831486938335,-2.3684757858670007e-14,-88.55366297387667C-10.713413687918221,-132.830494460815,-21.426827375836435,-177.10732594775334,-32.140241063754644,-221.38415743469167C-42.853654751672856,-265.66098892163,-53.56706843959106,-309.93782040856837,-58.92377528355018,-332.0762361520375L-64.28048212750927,-354.2146518955067"></path><path class="link" d="M126.49493666928335,-337.04455343030537L116.99982898253002,-271.40184297327704C107.50472129577669,-205.7591325162488,88.51450592227003,-74.47371160219222,106.90834003377222,-63.48390732402465C125.30217414527442,-52.49410304585708,181.08005774178545,-161.79991540357852,208.96899954004095,-216.4528215824392L236.85794133829648,-271.10572776129993"></path><path class="link"></path><path class="link" d="M184.6437398661262,-309.0415656966718L164.36936911589552,-248.8563498189027C144.09499836566485,-188.67113394113358,103.54625686520346,-68.30070218559536,93.85478966572965,-72.96786680786762C84.16332246625585,-77.63503143013988,105.3291295677696,-207.33979243022262,115.91203311852648,-272.192172930264L126.49493666928335,-337.04455343030537"></path><path class="link" d="M236.85794133829648,-271.10572776129993L212.19742447794113,-214.1072335665817C187.53690761758574,-157.10873937186344,138.21587389687502,-43.111750982426976,145.64943928857406,-35.336851133734335C153.08300468027312,-27.561951285041697,217.27116918438193,-126.0091399770929,249.36525143643632,-175.23273432311848L281.45933368849074,-224.45632866914409"></path><path class="link" d="M236.85794133829648,-271.10572776129993L199.437230065295,-206.48337231523678C162.01651879229357,-141.8610168691736,87.17509624629061,-12.616305977047261,-7.47289366317916,56.149483882404816C-102.12088357264895,124.9152737418569,-216.57544084558558,133.2021425686347,-273.8027194820539,137.34557698202363L-331.0299981185222,141.48901139541255"></path><path class="link" d="M236.85794133829648,-271.10572776129993L212.93815484835645,-212.9850750211887C189.01836835841638,-154.86442228107742,141.17879537853628,-38.62311680085494,154.5382037335578,-21.8709485890182C167.89761208857934,-5.11878037718147,242.4560017785025,-87.85574943373051,279.7351966234641,-129.224233962005L317.0143914684257,-170.59271849027954"></path><path class="link" d="M236.85794133829648,-271.10572776129993L205.66139354265513,-201.9612528476769C174.4648457470138,-132.81677793405387,112.07175015573115,5.472171893192201,67.21706806514243,110.4149174931232C22.362385974553707,215.35766309305419,-4.95388261534107,286.9542044656701,-18.612016910288457,322.7524751519781L-32.27015120523585,358.55074583828605"></path><path class="link" d="M236.85794133829648,-271.10572776129993L204.33841201768087,-202.20133859742228C171.8188826970652,-133.29694943354465,106.7798240558339,4.511828894210642,51.341289765450675,107.5338884961785C-4.097244524932549,210.55594809814636,-49.935254464467704,278.7912889743268,-72.85425943423529,312.908959412417L-95.77326440400286,347.0266298505072"></path><path class="link" d="M236.85794133829648,-271.10572776129993L209.5878164028126,-202.67379354337302C182.3176914673287,-134.24185932544617,127.7774415963609,2.622009110407608,114.33414238703163,101.8644291447694C100.89084317770238,201.10684917913122,128.54449463001166,262.727820812001,142.3713203561663,293.538306628436L156.19814608232096,324.34879244487087"></path><path class="link" d="M236.85794133829648,-271.10572776129993L213.46661223164458,-211.74868751045332C190.07528312499264,-152.39164725960666,143.29262491168876,-33.67756675791339,160.8796923330152,-7.0342984601935825C178.46675975434167,19.608969837526228,260.4235528102985,-45.81857406872742,301.4019493382769,-78.53234602185425L342.38034586625525,-111.24611797498108"></path><path class="link" d="M236.85794133829648,-271.10572776129993L213.7658115726904,-210.4378095462736C190.67368180708434,-149.7698913312473,144.48942227587216,-28.43405490119464,164.4700844255655,8.696237109962674C184.45074657525882,45.82652912111998,270.59633040585766,-1.2487232866180402,313.6691223211571,-24.786349490487055L356.74191423645647,-48.323975694356065"></path><path class="link" d="M236.85794133829648,-271.10572776129993L213.82613635849077,-209.09457382501236C190.79433137868503,-147.08341988872473,144.73072141907357,-23.061112016149536,165.1939818551697,24.815065765097998C185.65724229126582,72.69124354634553,272.6473731230696,44.4212912362654,316.1424385389714,30.28631508122533L359.6375039548733,16.151338926185264"></path><path class="link" d="M281.45933368849074,-224.45632866914409L251.74267033325216,-167.91579132341903C222.02600697801358,-111.375253977694,162.59268026753645,1.705820713756064,174.1784660503641,52.46646486265894C185.7642518331917,103.22710901156181,268.36915010932415,91.66732261791749,309.6715992473903,85.88742942109532L350.9740483854565,80.10753622427316"></path><path class="link" d="M281.45933368849074,-224.45632866914409L239.00974951318304,-164.4017284606899C196.56016533787536,-104.34712825223575,111.66099698726002,15.76207216467258,21.383416209534726,94.63521921540847C-68.89416456819056,173.50836626614435,-164.55015777302575,211.14545995070785,-212.37815437544336,229.96400679298958L-260.20615097786094,248.78255363527128"></path><path class="link" d="M281.45933368849074,-224.45632866914409L238.56697487337826,-174.2608718420319C195.6746160582658,-124.06541501491972,109.88989842804085,-23.67450136069537,16.07012053187727,-23.674501360695356C-77.7496573642863,-23.67450136069534,-179.60449552638852,-124.06541501491967,-230.53191460743963,-174.26087184203183L-281.45933368849074,-224.456328669144"></path><path class="link" d="M317.0143914684257,-170.59271849027954L275.472950995692,-116.10639076201365C233.93151052295832,-61.62006303374775,150.84862957749098,47.35259242278405,103.39125620029272,135.5431698108783C55.93388282309445,223.73374719897257,44.10201701416528,291.1422465186293,38.186084109700694,324.8464961784577L32.270151205236104,358.55074583828605"></path><path class="link" d="M317.0143914684257,-170.59271849027954L281.05995558182605,-119.44447060608718C245.10551969522635,-68.29622272189481,173.19664792202707,34.00027304648993,170.43531123390093,95.486211681996C167.6739745457748,156.97215031750207,234.06017294272183,177.64753182012944,267.2532721411954,187.98522257144316L300.44637133966893,198.32291332275685"></path><path class="link" d="M317.0143914684257,-170.59271849027954L268.936920060406,-128.25237148091844C220.8594486523864,-85.91202447155733,124.70450583634708,-1.2313304528351334,24.958884976861004,-10.20859881597921C-74.78673588262507,-19.18586717912329,-178.1230347855579,-121.82109792413364,-229.79118423702434,-173.1387132966388L-281.45933368849074,-224.456328669144"></path><path class="link" d="M317.0143914684257,-170.59271849027954L268.1961896899907,-127.13021293552544C219.37798791155578,-83.66770738077132,121.74158435468583,3.2573037287369098,16.07012053187725,3.257303728736924C-89.60134329093133,3.257303728736938,-203.30786737967853,-83.66770738077126,-260.16112942405215,-127.13021293552536L-317.01439146842574,-170.59271849027945"></path><path class="link" d="M342.38034586625525,-111.24611797498108L291.0464474150236,-67.70134015942568C239.71254896379187,-24.15656234387029,137.04475206132852,62.93299328724049,36.61366925397584,122.93777188894921C-63.81741355337686,182.94255049065796,-162.0117822656189,215.86255206296462,-211.1089666217399,232.32255284911798L-260.20615097786094,248.7825536352713"></path><path class="link" d="M342.38034586625525,-111.24611797498108L300.3141534742733,-79.32267597884116C258.2479610822914,-47.399233982701254,174.11557629832748,16.44765000957857,147.82614196497263,-16.51825794403655C121.53670763161779,-49.48416589765167,153.09022374887198,-179.2628657971617,168.86698180749912,-244.15221574691677L184.6437398661262,-309.0415656966718"></path><path class="link" d="M342.38034586625525,-111.24611797498108L290.6036727752188,-77.56048354076766C238.8269996841823,-43.87484910655426,135.2736535021094,23.496419761872556,31.300373576318396,4.6280513128454C-72.6729063494726,-14.240317136181753,-177.06612001898168,-119.34832290266287,-229.2627268537362,-171.9023257859034L-281.45933368849074,-224.456328669144"></path><path class="link" d="M356.74191423645647,-48.323975694356065L314.15554335531465,-13.955343628058491C271.56917247417283,20.41328843823909,186.39643071188922,89.15055257083424,170.30713683545662,138.66830745910545C154.21784295902404,188.18606234737663,207.2119969684425,218.48430799132393,233.7090739731517,233.63343081329754L260.20615097786094,248.7825536352712"></path><path class="link" d="M356.74191423645647,-48.323975694356065L312.5813264571535,-25.576679447473968C268.4207386778506,-2.829383200591868,180.09956311924464,42.66520929317233,151.41653405752294,-0.7877223738802949C122.73350499580123,-44.24065404093292,153.6886224309637,-176.64110986880235,169.16618114854495,-242.8413377827371L184.6437398661262,-309.0415656966718"></path><path class="link" d="M359.6375039548733,16.15133892618527L317.81236458334917,32.38033610770493C275.987225211825,48.60933328922459,192.33694646877663,81.0673276522639,185.23309438770204,49.9433180828531C178.1292423066274,18.819308513442298,247.57181688752655,-75.88670498841861,282.2931041779761,-123.23971173934906L317.0143914684257,-170.59271849027954"></path><path class="link" d="M359.6375039548733,16.15133892618527L316.62885957312903,41.11732094365391C273.6202151913848,66.08330296112254,187.60292642789622,116.0152669960598,171.03103426506084,154.7871361142408C154.45914210222543,193.55900523242178,207.3326465400432,221.17077943384652,233.76939875895206,234.97666653455886L260.20615097786094,248.78255363527123"></path><path class="link" d="M359.6375039548733,16.15133892618527L318.1043563885595,38.88203881365684C276.57120882224564,61.61273870112842,193.50491368961798,107.07413847607155,188.73699605022617,127.9637505542761C183.9690784108343,148.85336263248064,257.4995382646783,145.17118701394656,294.2647681916003,143.33009920467953L331.02999811852226,141.4890113954125"></path><path class="link" d="M359.6375039548733,16.15133892618527L315.0546426749679,29.495985124238427C270.47178139506246,42.84063132229158,181.30605883525166,69.52992371839788,152.14043148712713,15.331106281255037C122.97480413900263,-38.867711155887804,153.80927200256443,-173.9546384262798,169.2265059343453,-241.4981020614758L184.6437398661262,-309.0415656966718"></path><path class="link" d="M350.9740483854565,80.10753622427316L309.2288246075855,95.74657280243731C267.48360082971453,111.38560938060145,183.99315327397255,142.66368253692974,168.86517037270664,170.77618543876278C153.7371874714407,198.88868834059576,206.9716692246508,223.83562098793348,233.5889101012559,236.30908731160233L260.20615097786094,248.78255363527123"></path><path class="link" d="M350.9740483854565,80.10753622427316L300.55373508549843,97.32086944430398C250.13342178554032,114.53420266433477,149.29279518562407,148.96086910439638,64.76409610766117,189.66774514116267C-19.76460297030172,230.37462117792893,-87.9813745263113,277.3617068113999,-122.08976030431609,300.85524962813537L-156.19814608232087,324.34879244487087"></path><path class="link" d="M350.9740483854565,80.10753622427316L299.39947373668656,96.63123039284794C247.82489908791658,113.1549245614227,144.6757497903766,146.20231289857225,50.91295992191882,181.39207652369024C-42.84982994653898,216.5818401488082,-127.22626038591464,253.91397906189465,-169.41447560560246,272.5800485184379L-211.6026908252903,291.2461179749811"></path><path class="link" d="M350.9740483854565,80.10753622427316L310.06716253178985,94.69533029592661C269.1602766781232,109.28312436758002,187.34650497078988,138.4587125108869,178.92522546315863,158.1612753606342C170.50394595552737,177.86383821038146,235.47515864759816,188.09337576656915,267.9607649936335,193.208144544663L300.44637133966893,198.32291332275688"></path><path class="link" d="M350.9740483854565,80.10753622427316L297.2033966399546,87.00958796648835C243.4327448944526,93.9116397087035,135.89144140344868,107.71574319313386,24.56003476113496,65.93236740737508C-86.77137188117875,24.14899162161633,-201.89288167480223,-73.22186343433157,-259.45363657161397,-121.90729096230551L-317.01439146842574,-170.59271849027945"></path><path class="link" d="M350.9740483854565,80.10753622427316L297.94412701036987,85.88742942109532C244.91420563528322,91.66732261791749,138.8543628851099,103.22710901156181,33.4487992061187,52.46646486265896C-71.95676447287252,1.7058207137560923,-176.70804908068166,-111.37525397769396,-229.08369138458625,-167.91579132341897L-281.4593336884908,-224.456328669144"></path><path class="link" d="M331.02999811852226,141.4890113954125L293.0316195954502,147.12534033794142C255.0332410723781,152.7616692804704,179.03648402623398,164.03432716552828,173.93921289642506,173.506644153419C168.84194176661617,182.97896114130972,234.64415655314255,190.65093723203333,267.5452639464058,194.4869252773951L300.44637133966893,198.32291332275688"></path><path class="link"></path><path class="link"></path><path class="link" d="M300.44637133966893,198.32291332275688L262.6440819940199,198.76895899520957C224.8417926483709,199.21500466766224,149.23721395707292,200.1070960125676,115.12502946779533,224.8910487671927C81.01284497851769,249.67500152181773,88.39305469126047,298.35081568616243,92.08315954763185,322.68872276833474L95.77326440400323,347.0266298505071"></path><path class="link"></path><path class="link" d="M260.20615097786094,248.78255363527123L232.53625016280196,238.77190766782078C204.866349347743,228.76126170037034,149.52654771762508,208.7399697654694,156.23325111125973,200.3300297133837C162.93995450489442,191.92008966129796,231.69316292228166,195.12150149202742,266.0697671309753,196.72220740739215L300.44637133966893,198.32291332275688"></path><path class="link" d="M211.60269082529038,291.246117974981L188.60823979344914,264.47277556175146C165.6137887616079,237.69943314852193,119.62488669792545,184.15274832206282,115.13172820473142,84.10480104345397C110.63856971153739,-15.943146235154813,147.64115478883178,-162.4923559659133,166.142447327479,-235.76696083129255L184.6437398661262,-309.0415656966718"></path><path class="link" d="M156.19814608232096,324.34879244487087L144.74873925298215,300.85524962813537C133.29933242364334,277.3617068113999,110.40051876496572,230.37462117792893,142.86316914882164,189.66774514116267C175.32581953267754,148.96086910439638,263.149933959067,114.53420266433477,307.06199117226174,97.32086944430397L350.9740483854565,80.10753622427316"></path><path class="link" d="M156.19814608232096,324.34879244487087L133.59003533107418,292.74797667144907C110.98192457982738,261.1471608980272,65.7657030773338,197.94552935118358,8.95872208592587,92.3804696609265C-47.848258905482055,-13.184590029330593,-116.2459993858043,-161.11307786300108,-150.44486962596542,-235.07732177983632L-184.64373986612657,-309.04156569667157"></path><path class="link" d="M95.77326440400323,347.0266298505071L78.51190080335839,320.22590241211634C61.250537202713566,293.4251749737256,26.727810001423904,239.82372009694404,-47.73007546348605,195.33720449257171C-122.18796092839601,150.85068888819944,-236.58100465692624,115.47911255623633,-293.7775265211914,97.7933243902548L-350.9740483854565,80.10753622427325"></path><path class="link" d="M95.77326440400323,347.0266298505071L79.96012402621186,313.8808218935035C64.14698364842047,280.73501393649985,32.520702892837726,214.44339802249263,-30.351396789244607,119.19623826921746C-93.22349647132694,23.949078515942272,-187.34141507990884,-100.25362507660087,-234.4003743841998,-162.35497687287244L-281.45933368849074,-224.456328669144"></path><path class="link" d="M-32.270151205235855,358.55074583828605L-29.41029347334653,323.72433763306464C-26.55043574145721,288.8979294278433,-20.830720277678562,219.2451130174005,-62.36225069155438,122.07726726616217C-103.8937811054302,24.90942151492383,-192.67655739696048,-99.77345357711009,-237.0679455427256,-162.11489112312705L-281.45933368849074,-224.456328669144"></path><path class="link" d="M-95.77326440400284,347.0266298505072L-77.11650506200736,326.02680261240835C-58.45974572001188,305.02697537430953,-21.146227036020907,263.02732089811184,0.19434223218558344,264.948006896075C21.534911500392074,266.86869289403813,26.90253135281409,312.70971936616206,29.586341279025095,335.63023260222405L32.270151205236104,358.55074583828605"></path><path class="link" d="M-95.77326440400284,347.0266298505072L-71.52950047587333,322.68872276833486C-47.285736547743845,298.3508156861625,1.2017913085151644,249.67500152181776,67.2383972657938,224.8910487671927C133.27500322307242,200.10709601256767,216.86068728137067,199.21500466766224,258.6535293105198,198.76895899520957L300.44637133966893,198.32291332275688"></path><path class="link" d="M-95.77326440400284,347.0266298505072L-82.19718927097665,324.6246228652562C-68.62111413795047,302.22261588000515,-41.468963871898104,257.41860190950314,-60.77386827544601,248.12184993024871C-80.07877267899393,238.8250979509944,-145.84073175214212,265.03560796298774,-178.7217112887162,278.14086296898444L-211.6026908252903,291.2461179749811"></path><path class="link" d="M-95.77326440400284,347.0266298505072L-81.0429279221648,325.3142619167122C-66.31259144032676,303.60189398291726,-36.85191847665066,260.17715811532725,-46.92273208970366,256.3975185477212C-56.99354570275667,252.61787898011514,-106.59584589253876,288.483335712493,-131.39699598742982,306.4160640786819L-156.19814608232087,324.34879244487087"></path><path class="link" d="M-95.77326440400284,347.0266298505072L-85.28124787784297,318.89348163507293C-74.7892313516831,290.7603334196387,-53.80519829936335,234.49403698877015,-97.78257155784176,179.34815516804983C-141.75994481632014,124.20227334732954,-250.6987243855967,70.17680613675749,-305.16811417023496,43.164072531471454L-359.63750395487324,16.15133892618543"></path><path class="link" d="M-95.77326440400284,347.0266298505072L-83.65253599729333,313.88082189350354C-71.53180759058382,280.7350139364999,-47.29035077716481,214.4433980224927,-78.23802899124614,119.19623826921747C-109.18570720532745,23.949078515942272,-195.32252044690912,-100.25362507660087,-238.3909270676999,-162.35497687287244L-281.45933368849074,-224.456328669144"></path><path class="link" d="M-156.19814608232087,324.34879244487087L-123.14242024276997,303.3180699843538C-90.08669440321911,282.28734752383673,-23.97524272411735,240.22590260280262,52.132176846214286,219.2215894157836C128.23959641654594,198.2172762287646,214.34298387810745,198.27009477576075,257.3946776088882,198.2965040492588L300.44637133966893,198.32291332275688"></path><path class="link" d="M-156.19814608232087,324.34879244487087L-135.26545576418997,294.51016910952256C-114.3327654460591,264.6715457741742,-72.46738480979732,204.99429910347757,-93.34424941082564,113.52677891780841C-114.22111401185396,22.059258732139256,-197.84022385017235,-101.19853496850237,-239.64977876933153,-162.8274318188232L-281.45933368849074,-224.456328669144"></path><path class="link" d="M-260.20615097786094,248.7825536352713L-217.56959567717783,242.1099875118944C-174.9330403764947,235.43742138851744,-89.65992977512845,222.09228914176356,-40.91387941127894,240.386987842266C7.832170952570569,258.68168654276843,20.051161078903338,308.61621619052727,26.160656142069723,333.5834810144067L32.270151205236104,358.55074583828605"></path><path class="link" d="M-300.44637133966893,198.32291332275696L-260.1061933853911,191.87572376761958C-219.76601543111323,185.42853421248222,-139.08565952255756,172.5341551022075,-148.95084829175826,142.17222603611228C-158.816037060959,111.810296970017,-259.2267705079161,63.98081794810122,-309.4321372313947,40.06607843714333L-359.63750395487324,16.15133892618544"></path><path class="link" d="M-300.44637133966893,198.32291332275696L-260.04586859959073,190.53248804635834C-219.64536585951257,182.7420627699597,-138.84436037935617,167.16121221716242,-148.2269508621541,126.05339738097695C-157.60954134495202,84.94558254479146,-257.1757277907043,18.310803425217774,-306.9588210135804,-15.006586134569067L-356.7419142364565,-48.32397569435591"></path><path class="link" d="M-300.44637133966893,198.32291332275696L-259.7466692585449,189.22161008217861C-219.0469671774208,180.1203068416003,-137.64756301517272,161.91770036044366,-144.6365587696038,110.32286181082065C-151.62555452403487,58.728023261197656,-247.0029501951451,-26.25904735689167,-294.6916480307002,-68.75258266593634L-342.3803458662553,-111.246117974981"></path><path class="link" d="M-300.44637133966893,198.32291332275696L-259.21821187525677,187.98522257144324C-217.99005241084458,177.64753182012953,-135.53373348202027,156.97215031750213,-138.2950701701464,95.48621168199607C-141.05640685827254,34.00027304648999,-229.03539916334913,-68.29622272189472,-273.0248953158875,-119.44447060608707L-317.01439146842574,-170.59271849027942"></path><path class="link" d="M-331.0299981185222,141.48901139541255L-284.1582214053072,148.1765828444522C-237.28644469209212,154.86415429349185,-143.54289126566206,168.23929719157118,-131.73891674221852,186.12155423154763C-119.93494221877496,204.00381127152409,-190.07054659831795,226.39318245339769,-225.13834878808947,237.58786804433453L-260.20615097786094,248.7825536352713"></path><path class="link" d="M-331.0299981185222,141.48901139541255L-284.9965593295115,147.12534033794148C-238.9631205405008,152.76166928047044,-146.8962429624794,164.0343271655283,-141.79897183267053,173.50664415341905C-136.70170070286164,182.9789611413098,-218.5740360212653,190.65093723203336,-259.5102036804671,194.48692527739516L-300.44637133966893,198.32291332275696"></path><path class="link" d="M-331.0299981185222,141.48901139541255L-272.47796052369193,147.12534033794148C-213.92592292886172,152.76166928047041,-96.82184773920123,164.0343271655283,8.424213837163952,173.50664415341905C113.67027541352915,182.97896114130972,207.05832337659902,190.65093723203333,253.752347358134,194.4869252773951L300.44637133966893,198.32291332275688"></path><path class="link" d="M-331.0299981185222,141.48901139541255L-286.22970792566156,143.33009920467956C-241.42941773280097,145.1711870139466,-151.82883734707977,148.85336263248067,-156.5967549864716,127.96375055427616C-161.36467262586345,107.07413847607164,-260.50108829036833,61.612738701128535,-310.06929612262076,38.88203881365699L-359.63750395487324,16.15133892618544"></path><path class="link" d="M-331.0299981185222,141.48901139541255L-284.6009960451119,138.31743946311022C-238.1719939717017,135.1458675308079,-145.31398982488122,128.80272366620324,-137.05221241987599,67.8118336554438C-128.79043501487072,6.8209436446843865,-205.12488435168075,-108.81769251222981,-243.29210902008572,-166.6370105906869L-281.45933368849074,-224.456328669144"></path><path class="link" d="M-350.9740483854565,80.10753622427325L-303.2652508620013,90.90008916266476C-255.55645333854613,101.69264210105628,-160.13885829163573,123.2777479778393,-161.58276755320517,112.61838176149134C-163.02667681477462,101.95901554514336,-261.3320903848239,59.055177235664395,-310.4847971698486,37.603258080924924L-359.63750395487324,16.15133892618544"></path><path class="link" d="M-350.9740483854565,80.10753622427325L-303.204926076201,89.55685344140348C-255.43580376694544,99.00617065853373,-159.8975591484343,117.9048050927942,-160.858870123601,96.49955310635602C-161.82018109876765,75.09430111991782,-259.2810476676121,13.385162712780954,-308.01148095203433,-17.469406490787478L-356.7419142364565,-48.32397569435591"></path><path class="link" d="M-350.9740483854565,80.10753622427325L-302.90572673515516,88.2459754772238C-254.83740508485369,96.38441473017434,-158.7007617842509,112.66129323607544,-157.26847803105068,80.76901753619971C-155.8361942778505,48.876741836324015,-249.10827007205287,-31.18468806932849,-295.74430796915414,-71.21540302215475L-342.3803458662553,-111.246117974981"></path></g><g><text class="node module-1" dy="0.31em" transform="rotate(-79.71428571428572)translate(370,0)" style="text-anchor: start;">prog</text><text class="node module-1" dy="0.31em" transform="rotate(-69.42857142857143)translate(370,0)" style="text-anchor: start;">stmts</text><text class="node module-1" dy="0.31em" transform="rotate(-59.14285714285714)translate(370,0)" style="text-anchor: start;">block</text><text class="node module-1" dy="0.31em" transform="rotate(-48.85714285714286)translate(370,0)" style="text-anchor: start;">stmt</text><text class="node module-1" dy="0.31em" transform="rotate(-38.57142857142858)translate(370,0)" style="text-anchor: start;">function_call</text><text class="node module-1" dy="0.31em" transform="rotate(-28.285714285714285)translate(370,0)" style="text-anchor: start;">assignment</text><text class="node module-1" dy="0.31em" transform="rotate(-18)translate(370,0)" style="text-anchor: start;">function</text><text class="node module-1" dy="0.31em" transform="rotate(-7.714285714285722)translate(370,0)" style="text-anchor: start;">selective</text><text class="node module-1" dy="0.31em" transform="rotate(2.571428571428555)translate(370,0)" style="text-anchor: start;">iterative</text><text class="node module-1" dy="0.31em" transform="rotate(12.857142857142847)translate(370,0)" style="text-anchor: start;">parameters</text><text class="node module-1" dy="0.31em" transform="rotate(23.14285714285714)translate(370,0)" style="text-anchor: start;">exprs</text><text class="node module-1" dy="0.31em" transform="rotate(33.42857142857143)translate(370,0)" style="text-anchor: start;">expr</text><text class="node module-1" dy="0.31em" transform="rotate(43.71428571428572)translate(370,0)" style="text-anchor: start;">bexpr</text><text class="node module-1" dy="0.31em" transform="rotate(54)translate(370,0)" style="text-anchor: start;">main</text><text class="node module-1" dy="0.31em" transform="rotate(64.28571428571428)translate(370,0)" style="text-anchor: start;">print</text><text class="node module-1" dy="0.31em" transform="rotate(74.57142857142856)translate(370,0)" style="text-anchor: start;">val</text><text class="node module-1" dy="0.31em" transform="rotate(84.85714285714286)translate(370,0)" style="text-anchor: start;">valtype</text><text class="node module-1" dy="0.31em" transform="rotate(95.14285714285711)translate(370,0)rotate(180)" style="text-anchor: end;">return_</text><text class="node module-1" dy="0.31em" transform="rotate(105.42857142857142)translate(370,0)rotate(180)" style="text-anchor: end;">matrix_assignment</text><text class="node module-1" dy="0.31em" transform="rotate(115.7142857142857)translate(370,0)rotate(180)" style="text-anchor: end;">martix_math</text><text class="node module-1" dy="0.31em" transform="rotate(126)translate(370,0)rotate(180)" style="text-anchor: end;">martix_pre_stuff</text><text class="node module-1" dy="0.31em" transform="rotate(136.28571428571428)translate(370,0)rotate(180)" style="text-anchor: end;">rettype</text><text class="node module-1" dy="0.31em" transform="rotate(146.57142857142858)translate(370,0)rotate(180)" style="text-anchor: end;">array_constructs</text><text class="node module-1" dy="0.31em" transform="rotate(156.85714285714286)translate(370,0)rotate(180)" style="text-anchor: end;">array_statements</text><text class="node module-1" dy="0.31em" transform="rotate(167.14285714285717)translate(370,0)rotate(180)" style="text-anchor: end;">num</text><text class="node module-1" dy="0.31em" transform="rotate(177.42857142857144)translate(370,0)rotate(180)" style="text-anchor: end;">Inum</text><text class="node module-1" dy="0.31em" transform="rotate(187.71428571428572)translate(370,0)rotate(180)" style="text-anchor: end;">Fnum</text><text class="node module-1" dy="0.31em" transform="rotate(198)translate(370,0)rotate(180)" style="text-anchor: end;">Dnum</text><text class="node module-1" dy="0.31em" transform="rotate(208.28571428571428)translate(370,0)rotate(180)" style="text-anchor: end;">String</text><text class="node module-1" dy="0.31em" transform="rotate(218.57142857142856)translate(370,0)rotate(180)" style="text-anchor: end;">ID</text><text class="node module-1" dy="0.31em" transform="rotate(228.85714285714283)translate(370,0)rotate(180)" style="text-anchor: end;">WHITESPACE</text><text class="node module-1" dy="0.31em" transform="rotate(239.1428571428571)translate(370,0)rotate(180)" style="text-anchor: end;">NEWLINE</text><text class="node module-2" dy="0.31em" transform="rotate(259.7142857142857)translate(370,0)rotate(180)" style="text-anchor: end;">EOF</text></g></g></svg>